# MagicaVoxel @ Ephtracy

# group
o 

# material
mtllib Player.mtl
usemtl palette

# normals
vn -1 0 0
vn 1 0 0
vn 0 0 1
vn 0 0 -1
vn 0 -1 0
vn 0 1 0

# texcoords
vt 0.115234 0.5
vt 0.162109 0.5
vt 0.876953 0.5

# verts
v -0.4 0.4 -0.1
v -0.4 0.4 -0.2
v -0.4 0.5 -0.1
v -0.4 0.5 -0.2
v -0.3 0.3 -0.1
v -0.3 0.3 -0.2
v -0.3 0.4 0
v -0.3 0.4 -0.1
v -0.3 0.4 -0.2
v -0.3 0.4 -0.3
v -0.3 0.5 0
v -0.3 0.5 -0.1
v -0.3 0.5 -0.2
v -0.3 0.5 -0.3
v -0.3 0.6 -0.1
v -0.3 0.6 -0.2
v -0.2 0.2 0
v -0.2 0.2 -0.3
v -0.2 0.3 -0.1
v -0.2 0.3 -0.2
v -0.2 0.4 0
v -0.2 0.4 -0.1
v -0.2 0.4 -0.2
v -0.2 0.4 -0.3
v -0.2 0.5 0
v -0.2 0.5 -0.1
v -0.2 0.5 -0.2
v -0.2 0.5 -0.3
v -0.2 0.6 0
v -0.2 0.6 -0.1
v -0.2 0.6 -0.2
v -0.2 0.7 0
v -0.2 0.7 -0.3
v -0.1 0.3 0.1
v -0.1 0.3 0
v -0.1 0.4 0.2
v -0.1 0.4 0.1
v -0.1 0.5 0.2
v -0.1 0.5 0
v 0 0.3 0.1
v 0 0.3 0
v 0 0.4 0.2
v 0 0.4 0.1
v 0 0.5 0.2
v 0 0.5 0
v 0.1 0.2 0
v 0.1 0.2 -0.3
v 0.1 0.3 -0.1
v 0.1 0.3 -0.2
v 0.1 0.4 0
v 0.1 0.4 -0.1
v 0.1 0.4 -0.2
v 0.1 0.4 -0.3
v 0.1 0.5 0
v 0.1 0.5 -0.1
v 0.1 0.5 -0.2
v 0.1 0.5 -0.3
v 0.1 0.6 0
v 0.1 0.6 -0.1
v 0.1 0.6 -0.2
v 0.1 0.7 0
v 0.1 0.7 -0.3
v 0.2 0.3 -0.1
v 0.2 0.3 -0.2
v 0.2 0.4 0
v 0.2 0.4 -0.1
v 0.2 0.4 -0.2
v 0.2 0.4 -0.3
v 0.2 0.5 0
v 0.2 0.5 -0.1
v 0.2 0.5 -0.2
v 0.2 0.5 -0.3
v 0.2 0.6 -0.1
v 0.2 0.6 -0.2
v 0.3 0.4 -0.1
v 0.3 0.4 -0.2
v 0.3 0.5 -0.1
v 0.3 0.5 -0.2
v -0.1 0.4 0.2
v -0.1 0.5 0.2
v 0 0.4 0.2
v 0 0.5 0.2
v -0.1 0.3 0.1
v -0.1 0.4 0.1
v 0 0.3 0.1
v 0 0.4 0.1
v -0.3 0.4 0
v -0.3 0.5 0
v -0.2 0.2 0
v -0.2 0.4 0
v -0.2 0.5 0
v -0.2 0.6 0
v -0.2 0.7 0
v -0.1 0.3 0
v -0.1 0.5 0
v -0.1 0.6 0
v 0 0.3 0
v 0 0.5 0
v 0 0.6 0
v 0.1 0.2 0
v 0.1 0.4 0
v 0.1 0.5 0
v 0.1 0.6 0
v 0.1 0.7 0
v 0.2 0.4 0
v 0.2 0.5 0
v -0.4 0.4 -0.1
v -0.4 0.5 -0.1
v -0.3 0.3 -0.1
v -0.3 0.4 -0.1
v -0.3 0.5 -0.1
v -0.3 0.6 -0.1
v -0.2 0.3 -0.1
v -0.2 0.4 -0.1
v -0.2 0.5 -0.1
v -0.2 0.6 -0.1
v 0.1 0.3 -0.1
v 0.1 0.4 -0.1
v 0.1 0.5 -0.1
v 0.1 0.6 -0.1
v 0.2 0.3 -0.1
v 0.2 0.4 -0.1
v 0.2 0.5 -0.1
v 0.2 0.6 -0.1
v 0.3 0.4 -0.1
v 0.3 0.5 -0.1
v -0.4 0.4 -0.2
v -0.4 0.5 -0.2
v -0.3 0.3 -0.2
v -0.3 0.4 -0.2
v -0.3 0.5 -0.2
v -0.3 0.6 -0.2
v -0.2 0.3 -0.2
v -0.2 0.4 -0.2
v -0.2 0.5 -0.2
v -0.2 0.6 -0.2
v 0.1 0.3 -0.2
v 0.1 0.4 -0.2
v 0.1 0.5 -0.2
v 0.1 0.6 -0.2
v 0.2 0.3 -0.2
v 0.2 0.4 -0.2
v 0.2 0.5 -0.2
v 0.2 0.6 -0.2
v 0.3 0.4 -0.2
v 0.3 0.5 -0.2
v -0.3 0.4 -0.3
v -0.3 0.5 -0.3
v -0.2 0.2 -0.3
v -0.2 0.4 -0.3
v -0.2 0.5 -0.3
v -0.2 0.7 -0.3
v 0.1 0.2 -0.3
v 0.1 0.4 -0.3
v 0.1 0.5 -0.3
v 0.1 0.7 -0.3
v 0.2 0.4 -0.3
v 0.2 0.5 -0.3
v -0.2 0.2 0
v 0.1 0.2 0
v -0.2 0.2 -0.3
v 0.1 0.2 -0.3
v -0.1 0.3 0.1
v 0 0.3 0.1
v -0.1 0.3 0
v 0 0.3 0
v -0.3 0.3 -0.1
v -0.2 0.3 -0.1
v 0.1 0.3 -0.1
v 0.2 0.3 -0.1
v -0.3 0.3 -0.2
v -0.2 0.3 -0.2
v 0.1 0.3 -0.2
v 0.2 0.3 -0.2
v -0.1 0.4 0.2
v 0 0.4 0.2
v -0.1 0.4 0.1
v 0 0.4 0.1
v -0.3 0.4 0
v -0.2 0.4 0
v 0.1 0.4 0
v 0.2 0.4 0
v -0.4 0.4 -0.1
v -0.3 0.4 -0.1
v -0.2 0.4 -0.1
v 0.1 0.4 -0.1
v 0.2 0.4 -0.1
v 0.3 0.4 -0.1
v -0.4 0.4 -0.2
v -0.3 0.4 -0.2
v -0.2 0.4 -0.2
v 0.1 0.4 -0.2
v 0.2 0.4 -0.2
v 0.3 0.4 -0.2
v -0.3 0.4 -0.3
v -0.2 0.4 -0.3
v 0.1 0.4 -0.3
v 0.2 0.4 -0.3
v -0.1 0.5 0.2
v 0 0.5 0.2
v -0.3 0.5 0
v -0.2 0.5 0
v -0.1 0.5 0
v 0 0.5 0
v 0.1 0.5 0
v 0.2 0.5 0
v -0.4 0.5 -0.1
v -0.3 0.5 -0.1
v -0.2 0.5 -0.1
v 0.1 0.5 -0.1
v 0.2 0.5 -0.1
v 0.3 0.5 -0.1
v -0.4 0.5 -0.2
v -0.3 0.5 -0.2
v -0.2 0.5 -0.2
v 0.1 0.5 -0.2
v 0.2 0.5 -0.2
v 0.3 0.5 -0.2
v -0.3 0.5 -0.3
v -0.2 0.5 -0.3
v 0.1 0.5 -0.3
v 0.2 0.5 -0.3
v -0.3 0.6 -0.1
v -0.2 0.6 -0.1
v 0.1 0.6 -0.1
v 0.2 0.6 -0.1
v -0.3 0.6 -0.2
v -0.2 0.6 -0.2
v 0.1 0.6 -0.2
v 0.2 0.6 -0.2
v -0.2 0.7 0
v 0.1 0.7 0
v -0.2 0.7 -0.3
v 0.1 0.7 -0.3

# faces
f 3/2/1 2/2/1 1/2/1
f 4/2/1 2/2/1 3/2/1
f 8/2/1 6/2/1 5/2/1
f 9/2/1 6/2/1 8/2/1
f 11/2/1 8/2/1 7/2/1
f 12/2/1 8/2/1 11/2/1
f 13/2/1 10/2/1 9/2/1
f 14/2/1 10/2/1 13/2/1
f 15/2/1 13/2/1 12/2/1
f 16/2/1 13/2/1 15/2/1
f 19/2/1 18/2/1 17/2/1
f 20/2/1 18/2/1 19/2/1
f 21/2/1 19/2/1 17/2/1
f 22/2/1 19/2/1 21/2/1
f 23/2/1 18/2/1 20/2/1
f 24/2/1 18/2/1 23/2/1
f 29/3/1 26/3/1 25/3/1
f 30/3/1 26/3/1 29/3/1
f 31/2/1 28/2/1 27/2/1
f 32/2/1 30/2/1 29/2/1
f 32/2/1 31/2/1 30/2/1
f 33/2/1 28/2/1 31/2/1
f 33/2/1 31/2/1 32/2/1
f 37/1/1 35/1/1 34/1/1
f 38/1/1 37/1/1 36/1/1
f 39/1/1 35/1/1 37/1/1
f 39/1/1 37/1/1 38/1/1
f 40/1/2 41/1/2 43/1/2
f 42/1/2 43/1/2 44/1/2
f 43/1/2 41/1/2 45/1/2
f 44/1/2 43/1/2 45/1/2
f 46/2/2 47/2/2 48/2/2
f 48/2/2 47/2/2 49/2/2
f 46/2/2 48/2/2 50/2/2
f 50/2/2 48/2/2 51/2/2
f 49/2/2 47/2/2 52/2/2
f 52/2/2 47/2/2 53/2/2
f 54/3/2 55/3/2 58/3/2
f 58/3/2 55/3/2 59/3/2
f 56/2/2 57/2/2 60/2/2
f 58/2/2 59/2/2 61/2/2
f 59/2/2 60/2/2 61/2/2
f 60/2/2 57/2/2 62/2/2
f 61/2/2 60/2/2 62/2/2
f 63/2/2 64/2/2 66/2/2
f 66/2/2 64/2/2 67/2/2
f 65/2/2 66/2/2 69/2/2
f 69/2/2 66/2/2 70/2/2
f 67/2/2 68/2/2 71/2/2
f 71/2/2 68/2/2 72/2/2
f 70/2/2 71/2/2 73/2/2
f 73/2/2 71/2/2 74/2/2
f 75/2/2 76/2/2 77/2/2
f 77/2/2 76/2/2 78/2/2
f 81/1/3 80/1/3 79/1/3
f 82/1/3 80/1/3 81/1/3
f 85/1/3 84/1/3 83/1/3
f 86/1/3 84/1/3 85/1/3
f 90/2/3 88/2/3 87/2/3
f 91/2/3 88/2/3 90/2/3
f 94/2/3 90/2/3 89/2/3
f 94/2/3 91/2/3 90/2/3
f 95/3/3 92/3/3 91/3/3
f 95/2/3 91/2/3 94/2/3
f 96/2/3 93/2/3 92/2/3
f 96/3/3 92/3/3 95/3/3
f 97/2/3 94/2/3 89/2/3
f 98/2/3 96/2/3 95/2/3
f 99/2/3 93/2/3 96/2/3
f 99/2/3 96/2/3 98/2/3
f 100/2/3 98/2/3 97/2/3
f 100/2/3 97/2/3 89/2/3
f 101/2/3 98/2/3 100/2/3
f 102/3/3 99/3/3 98/3/3
f 102/2/3 98/2/3 101/2/3
f 103/2/3 93/2/3 99/2/3
f 103/3/3 99/3/3 102/3/3
f 104/2/3 93/2/3 103/2/3
f 105/2/3 102/2/3 101/2/3
f 106/2/3 102/2/3 105/2/3
f 110/2/3 108/2/3 107/2/3
f 111/2/3 108/2/3 110/2/3
f 113/2/3 110/2/3 109/2/3
f 114/2/3 110/2/3 113/2/3
f 115/2/3 112/2/3 111/2/3
f 116/2/3 112/2/3 115/2/3
f 121/2/3 118/2/3 117/2/3
f 122/2/3 118/2/3 121/2/3
f 123/2/3 120/2/3 119/2/3
f 124/2/3 120/2/3 123/2/3
f 125/2/3 123/2/3 122/2/3
f 126/2/3 123/2/3 125/2/3
f 127/2/4 128/2/4 130/2/4
f 130/2/4 128/2/4 131/2/4
f 129/2/4 130/2/4 133/2/4
f 133/2/4 130/2/4 134/2/4
f 131/2/4 132/2/4 135/2/4
f 135/2/4 132/2/4 136/2/4
f 137/2/4 138/2/4 141/2/4
f 141/2/4 138/2/4 142/2/4
f 139/2/4 140/2/4 143/2/4
f 143/2/4 140/2/4 144/2/4
f 142/2/4 143/2/4 145/2/4
f 145/2/4 143/2/4 146/2/4
f 147/2/4 148/2/4 150/2/4
f 150/2/4 148/2/4 151/2/4
f 149/2/4 150/2/4 153/2/4
f 151/2/4 152/2/4 153/2/4
f 150/2/4 151/2/4 153/2/4
f 153/2/4 152/2/4 154/2/4
f 154/2/4 152/2/4 155/2/4
f 155/2/4 152/2/4 156/2/4
f 154/2/4 155/2/4 157/2/4
f 157/2/4 155/2/4 158/2/4
f 161/2/5 160/2/5 159/2/5
f 162/2/5 160/2/5 161/2/5
f 165/1/5 164/1/5 163/1/5
f 166/1/5 164/1/5 165/1/5
f 171/2/5 168/2/5 167/2/5
f 172/2/5 168/2/5 171/2/5
f 173/2/5 170/2/5 169/2/5
f 174/2/5 170/2/5 173/2/5
f 177/1/5 176/1/5 175/1/5
f 178/1/5 176/1/5 177/1/5
f 184/2/5 180/2/5 179/2/5
f 185/2/5 180/2/5 184/2/5
f 186/2/5 182/2/5 181/2/5
f 187/2/5 182/2/5 186/2/5
f 189/2/5 184/2/5 183/2/5
f 190/2/5 184/2/5 189/2/5
f 193/2/5 188/2/5 187/2/5
f 194/2/5 188/2/5 193/2/5
f 195/2/5 191/2/5 190/2/5
f 196/2/5 191/2/5 195/2/5
f 197/2/5 193/2/5 192/2/5
f 198/2/5 193/2/5 197/2/5
f 199/1/6 200/1/6 203/1/6
f 203/1/6 200/1/6 204/1/6
f 201/2/6 202/2/6 208/2/6
f 208/2/6 202/2/6 209/2/6
f 205/2/6 206/2/6 210/2/6
f 210/2/6 206/2/6 211/2/6
f 207/2/6 208/2/6 213/2/6
f 213/2/6 208/2/6 214/2/6
f 211/2/6 212/2/6 217/2/6
f 217/2/6 212/2/6 218/2/6
f 214/2/6 215/2/6 219/2/6
f 219/2/6 215/2/6 220/2/6
f 216/2/6 217/2/6 221/2/6
f 221/2/6 217/2/6 222/2/6
f 223/2/6 224/2/6 227/2/6
f 227/2/6 224/2/6 228/2/6
f 225/2/6 226/2/6 229/2/6
f 229/2/6 226/2/6 230/2/6
f 231/2/6 232/2/6 233/2/6
f 233/2/6 232/2/6 234/2/6
